<?xml version="1.0" encoding="UTF-8"?>
<svg id="Camada_1" xmlns="http://www.w3.org/2000/svg" width="400" height="278.4" version="1.1" viewBox="0 0 400 278.4">
  <!-- Generator: Adobe Illustrator 29.2.1, SVG Export Plug-In . SVG Version: 2.1.0 Build 116)  -->
  <defs>
    <style>
      .st0 {
        fill: #492680;
      }

      .st1 {
        fill: #4cbabb;
      }

      .st2 {
        fill: #ec671a;
      }

      .st3 {
        fill: #4cbbbc;
      }
    </style>
  </defs>
  <path class="st2" d="M70.5,177c0,0,.3,0,.4.2l1,1.1c-.8.9-1.7,1.6-2.8,2.1-1.1.5-2.4.7-4,.7s-2.6-.2-3.7-.7c-1.1-.5-2-1.1-2.8-2-.8-.8-1.4-1.9-1.8-3-.4-1.2-.6-2.5-.6-3.9s.2-2.7.7-3.9,1.1-2.2,1.9-3c.8-.8,1.8-1.5,3-2s2.4-.7,3.8-.7,2.6.2,3.6.6c1,.4,1.9,1,2.7,1.7l-.8,1.2s0,.2-.2.2h-.3c-.1,0-.2,0-.4-.1,0,0-.3-.2-.5-.3s-.4-.3-.6-.4c-.2-.1-.5-.3-.8-.4-.3-.1-.7-.2-1.1-.3-.4,0-.9-.1-1.5-.1-1,0-1.9.2-2.8.5-.8.3-1.6.8-2.2,1.5-.6.6-1.1,1.4-1.4,2.3-.3.9-.5,1.9-.5,3.1s.2,2.2.5,3.1c.3.9.8,1.7,1.4,2.3.6.6,1.3,1.1,2.1,1.5.8.3,1.7.5,2.6.5h1.5c.4,0,.9-.2,1.2-.3.4-.1.7-.3,1.1-.5.3-.2.7-.5,1-.8,0-.1.3-.2.4-.2"/>
  <path class="st2" d="M91.4,171.5c0-1.2-.2-2.2-.5-3.1-.3-.9-.8-1.7-1.3-2.3-.6-.6-1.3-1.1-2.1-1.5-.8-.3-1.7-.5-2.8-.5s-1.9.2-2.7.5c-.8.3-1.5.8-2.1,1.5-.6.6-1,1.4-1.3,2.3-.3.9-.5,2-.5,3.1s.2,2.2.5,3.1c.3.9.8,1.7,1.3,2.3.6.6,1.3,1.1,2.1,1.5.8.3,1.7.5,2.7.5s1.9-.2,2.8-.5c.8-.3,1.5-.8,2.1-1.5.6-.6,1-1.4,1.3-2.3.3-.9.5-2,.5-3.1M94,171.5c0,1.4-.2,2.7-.7,3.9-.4,1.2-1.1,2.2-1.9,3s-1.8,1.5-2.9,2-2.4.7-3.8.7-2.6-.2-3.8-.7c-1.1-.5-2.1-1.1-2.9-2-.8-.8-1.4-1.9-1.9-3-.4-1.2-.7-2.5-.7-3.9s.2-2.7.7-3.9c.4-1.2,1.1-2.2,1.9-3,.8-.9,1.8-1.5,2.9-2s2.4-.7,3.8-.7,2.6.2,3.8.7c1.1.5,2.1,1.1,2.9,2s1.4,1.9,1.9,3c.4,1.2.7,2.5.7,3.9"/>
  <path class="st2" d="M100.6,162.2c0,0,.2.2.4.3l10.9,14.2v-14.6h2.2v18.8h-1.3c-.2,0-.4,0-.5-.1,0,0-.3-.2-.4-.4l-10.9-14.2v14.6h-2.2v-18.8h1.8"/>
  <path class="st2" d="M128.3,179h1.4c.4,0,.8-.1,1.2-.2.4,0,.7-.2,1.1-.3.3-.1.7-.3,1-.5v-4.1h-2.9c-.2,0-.3,0-.4-.1-.1,0-.2-.2-.2-.4v-1.4h5.8v7.2c-.5.3-1,.6-1.5.9-.5.3-1.1.5-1.6.6-.6.2-1.2.3-1.9.4-.7,0-1.4.1-2.2.1-1.4,0-2.6-.2-3.8-.7-1.1-.5-2.1-1.1-2.9-2-.8-.8-1.5-1.9-1.9-3-.5-1.2-.7-2.5-.7-3.9s.2-2.7.7-3.9c.4-1.2,1.1-2.2,1.9-3s1.8-1.5,3-2,2.5-.7,4-.7,1.4,0,2.1.2c.6.1,1.2.3,1.8.5.5.2,1.1.5,1.5.7.5.3.9.6,1.3,1l-.7,1.2c-.2.2-.3.4-.6.4s-.3,0-.5-.1-.5-.3-.7-.4c-.3-.2-.6-.3-1-.5s-.8-.3-1.4-.4c-.5-.1-1.2-.2-1.9-.2-1.1,0-2,.2-2.9.5s-1.6.8-2.2,1.5c-.6.6-1.1,1.4-1.4,2.3-.3.9-.5,1.9-.5,3.1s.2,2.3.5,3.2.8,1.7,1.4,2.4c.6.6,1.3,1.1,2.2,1.5.8.3,1.8.5,2.8.5"/>
  <path class="st2" d="M143.3,171.2h2.7c.7,0,1.4,0,2-.3.6-.2,1-.4,1.4-.8.4-.3.7-.7.9-1.2s.3-1,.3-1.5c0-1.1-.4-2-1.1-2.5-.7-.6-1.8-.9-3.3-.9h-2.8v7.1h0ZM143.3,173v7.9h-2.5v-18.8h5.3c1.2,0,2.2.1,3.1.4.9.2,1.6.6,2.1,1,.6.5,1,1,1.3,1.6s.4,1.4.4,2.2-.1,1.3-.3,1.9c-.2.6-.5,1.1-.9,1.6s-.9.9-1.5,1.2-1.2.6-1.9.7c.3.2.6.4.8.8l5.5,7.5h-2.3c-.5,0-.8-.2-1-.5l-4.9-6.7c-.1-.2-.3-.4-.5-.5-.2,0-.4-.1-.8-.1h-1.9v-.2Z"/>
  <polygon class="st2" points="170.3 162.1 170.3 164.2 161.3 164.2 161.3 170.4 168.6 170.4 168.6 172.4 161.3 172.4 161.3 178.8 170.3 178.8 170.3 180.9 158.7 180.9 158.7 162.1 170.3 162.1"/>
  <path class="st2" d="M184.9,165c0,.1-.2.2-.2.3h-.3c-.1,0-.3,0-.5-.2-.2-.1-.4-.3-.7-.5s-.7-.3-1.1-.5c-.4-.1-.9-.2-1.5-.2s-1.1,0-1.5.2-.8.4-1.1.6c-.3.3-.5.6-.7.9-.1.4-.2.7-.2,1.1s.1,1,.4,1.3c.3.3.6.6,1,.9.4.2.9.5,1.4.6.5.2,1.1.4,1.7.6.6.2,1.1.4,1.7.7.5.2,1,.5,1.4.9s.8.8,1,1.4c.3.5.4,1.2.4,2s-.1,1.6-.4,2.3c-.3.7-.7,1.3-1.2,1.9-.5.5-1.2,1-2,1.3s-1.7.5-2.7.5-2.3-.2-3.3-.7c-1-.4-1.9-1-2.6-1.8l.7-1.2s.2-.2.3-.2h.3c.2,0,.4,0,.6.3.2.2.5.4.9.6.4.2.8.5,1.3.7s1.1.3,1.8.3,1.1,0,1.6-.2.9-.4,1.2-.7.6-.7.8-1.1c.2-.4.3-.9.3-1.4s-.1-1-.4-1.4c-.3-.4-.6-.7-1-.9s-.9-.5-1.4-.6c-.5-.2-1.1-.3-1.7-.5-.6-.2-1.1-.4-1.7-.6-.5-.2-1-.5-1.4-.9s-.8-.8-1-1.4c-.3-.6-.4-1.3-.4-2.1s.1-1.3.4-1.9c.3-.6.6-1.2,1.1-1.7s1.1-.9,1.8-1.2,1.5-.4,2.5-.4,2,.2,2.9.5,1.6.8,2.3,1.4l-.6,1.2-.2-.2Z"/>
  <path class="st2" d="M200.2,165c0,.1-.2.2-.3.3h-.3c-.1,0-.3,0-.5-.2-.2-.1-.4-.3-.7-.5s-.7-.3-1.1-.5c-.4-.1-.9-.2-1.5-.2s-1.1,0-1.5.2-.8.4-1.1.6c-.3.3-.5.6-.7.9-.1.4-.2.7-.2,1.1s.1,1,.4,1.3c.3.3.6.6,1,.9.4.2.9.5,1.4.6.5.2,1.1.4,1.7.6.6.2,1.1.4,1.7.7.5.2,1,.5,1.4.9s.8.8,1,1.4c.3.5.4,1.2.4,2s-.1,1.6-.4,2.3c-.3.7-.7,1.3-1.2,1.9-.5.5-1.2,1-2,1.3s-1.7.5-2.7.5-2.3-.2-3.3-.7c-1-.4-1.9-1-2.6-1.8l.7-1.2s.2-.2.3-.2h.3c.2,0,.4,0,.6.3.2.2.5.4.9.6.4.2.8.5,1.3.7s1.1.3,1.8.3,1.1,0,1.6-.2.9-.4,1.2-.7.6-.7.8-1.1c.2-.4.3-.9.3-1.4s-.1-1-.4-1.4c-.3-.4-.6-.7-1-.9s-.9-.5-1.4-.6c-.5-.2-1.1-.3-1.7-.5-.6-.2-1.1-.4-1.7-.6-.5-.2-1-.5-1.4-.9s-.8-.8-1-1.4c-.3-.6-.4-1.3-.4-2.1s.1-1.3.4-1.9c.3-.6.6-1.2,1.1-1.7s1.1-.9,1.8-1.2,1.5-.4,2.5-.4,2,.2,2.9.5,1.6.8,2.3,1.4l-.6,1.2v-.2Z"/>
  <path class="st2" d="M220.6,171.5c0-1.2-.2-2.2-.5-3.1-.3-.9-.8-1.7-1.3-2.3-.6-.6-1.3-1.1-2.1-1.5-.8-.3-1.7-.5-2.8-.5s-1.9.2-2.7.5-1.5.8-2.1,1.5c-.6.6-1,1.4-1.3,2.3-.3.9-.5,2-.5,3.1s.2,2.2.5,3.1c.3.9.8,1.7,1.3,2.3.6.6,1.3,1.1,2.1,1.5.8.3,1.7.5,2.7.5s1.9-.2,2.8-.5c.8-.3,1.5-.8,2.1-1.5.6-.6,1-1.4,1.3-2.3.3-.9.5-2,.5-3.1M223.2,171.5c0,1.4-.2,2.7-.7,3.9-.4,1.2-1.1,2.2-1.9,3-.8.8-1.8,1.5-2.9,2-1.1.5-2.4.7-3.8.7s-2.6-.2-3.8-.7c-1.1-.5-2.1-1.1-2.9-2-.8-.8-1.4-1.9-1.9-3-.4-1.2-.7-2.5-.7-3.9s.2-2.7.7-3.9c.4-1.2,1.1-2.2,1.9-3,.8-.9,1.8-1.5,2.9-2,1.1-.5,2.4-.7,3.8-.7s2.6.2,3.8.7c1.1.5,2.1,1.1,2.9,2,.8.9,1.4,1.9,1.9,3,.4,1.2.7,2.5.7,3.9"/>
  <rect class="st2" x=".5" y="194.5" width="2.5" height="18.8"/>
  <path class="st2" d="M11.2,194.6c.1,0,.2.2.4.3l10.9,14.2v-14.6h2.2v18.8h-1.3c-.2,0-.4,0-.5-.1-.1,0-.3-.2-.4-.4l-10.9-14.2v14.6h-2.2v-18.8h1.8"/>
  <polygon class="st2" points="43.4 194.5 43.4 196.6 37.3 196.6 37.3 213.3 34.8 213.3 34.8 196.6 28.7 196.6 28.7 194.5 43.4 194.5"/>
  <polygon class="st2" points="59 194.5 59 196.6 50 196.6 50 202.8 57.3 202.8 57.3 204.8 50 204.8 50 211.2 59 211.2 59 213.3 47.4 213.3 47.4 194.5 59 194.5"/>
  <path class="st2" d="M66.8,203.6h2.7c.7,0,1.4,0,2-.3.6-.2,1-.4,1.4-.8.4-.3.7-.7.9-1.2.2-.5.3-1,.3-1.5,0-1.1-.4-2-1.1-2.5-.7-.6-1.8-.9-3.3-.9h-2.8v7.1h0ZM66.8,205.5v7.9h-2.5v-18.8h5.3c1.2,0,2.2.1,3.1.4.9.2,1.6.6,2.1,1,.6.5,1,1,1.3,1.6s.4,1.4.4,2.2,0,1.3-.3,1.9c-.2.6-.5,1.1-.9,1.6s-.9.9-1.5,1.2-1.2.6-1.9.7c.3.2.6.5.8.8l5.5,7.5h-2.3c-.5,0-.8-.2-1-.5l-4.9-6.7c0-.2-.3-.4-.5-.5-.2,0-.4-.1-.8-.1h-1.9v-.2Z"/>
  <path class="st2" d="M84,194.6c0,0,.2.2.4.3l10.9,14.2v-14.6h2.2v18.8h-1.3c-.2,0-.4,0-.5-.1,0,0-.3-.2-.4-.4l-10.9-14.2v14.6h-2.2v-18.8h1.8"/>
  <path class="st2" d="M106.5,206.3h7l-3-7.7c-.2-.5-.4-1.1-.6-1.8,0,.4-.2.7-.3,1,0,.3-.2.6-.3.8l-3,7.6h.2ZM118.8,213.3h-2c-.2,0-.4,0-.6-.2,0-.1-.2-.3-.3-.4l-1.8-4.5h-8.4l-1.8,4.5c0,.2-.2.3-.3.4-.2.1-.3.2-.6.2h-2l7.5-18.8h2.6l7.5,18.8h.2Z"/>
  <path class="st2" d="M135.2,209.4c.1,0,.3,0,.4.2l1,1.1c-.8.9-1.7,1.6-2.8,2.1s-2.4.7-4,.7-2.6-.2-3.7-.7-2-1.1-2.8-2c-.8-.8-1.4-1.9-1.8-3-.4-1.2-.6-2.5-.6-3.9s.2-2.7.7-3.9,1.1-2.2,1.9-3,1.8-1.5,3-2,2.4-.7,3.8-.7,2.6.2,3.6.6c1,.4,1.9,1,2.7,1.7l-.8,1.2s-.1.2-.2.2h-.3c-.1,0-.2,0-.4-.1-.1,0-.3-.2-.5-.3s-.4-.3-.6-.4c-.2-.1-.5-.3-.8-.4-.3-.1-.7-.2-1.1-.3-.4,0-.9-.1-1.5-.1-1,0-1.9.2-2.8.5-.8.3-1.6.8-2.2,1.5-.6.6-1.1,1.4-1.4,2.3-.3.9-.5,1.9-.5,3.1s.2,2.2.5,3.1c.3.9.8,1.7,1.4,2.3s1.3,1.1,2.1,1.5c.8.3,1.7.5,2.6.5h1.5c.4,0,.9-.2,1.2-.3.4-.1.7-.3,1.1-.5.3-.2.7-.5,1-.8s.3-.2.4-.2"/>
  <rect class="st2" x="141.7" y="194.5" width="2.5" height="18.8"/>
  <path class="st2" d="M165.5,203.9c0-1.2-.2-2.2-.5-3.1-.3-.9-.8-1.7-1.3-2.3-.6-.6-1.3-1.1-2.1-1.5-.8-.3-1.7-.5-2.8-.5s-1.9.2-2.7.5-1.5.8-2.1,1.5c-.6.6-1,1.4-1.3,2.3-.3.9-.5,2-.5,3.1s.2,2.2.5,3.1c.3.9.8,1.7,1.3,2.3.6.6,1.3,1.1,2.1,1.5.8.3,1.7.5,2.7.5s1.9-.2,2.8-.5c.8-.3,1.5-.8,2.1-1.5.6-.6,1-1.4,1.3-2.3.3-.9.5-2,.5-3.1M168.1,203.9c0,1.4-.2,2.7-.7,3.9-.4,1.2-1.1,2.2-1.9,3-.8.8-1.8,1.5-2.9,2-1.1.5-2.4.7-3.8.7s-2.6-.2-3.8-.7c-1.1-.5-2.1-1.1-2.9-2-.8-.8-1.4-1.9-1.9-3-.4-1.2-.7-2.5-.7-3.9s.2-2.7.7-3.9c.4-1.2,1.1-2.2,1.9-3,.8-.9,1.8-1.5,2.9-2,1.1-.5,2.4-.7,3.8-.7s2.6.2,3.8.7c1.1.5,2.1,1.1,2.9,2,.8.9,1.4,1.9,1.9,3,.4,1.2.7,2.5.7,3.9"/>
  <path class="st2" d="M174.7,194.6c.1,0,.2.2.4.3l10.9,14.2v-14.6h2.2v18.8h-1.3c-.2,0-.4,0-.5-.1-.1,0-.3-.2-.4-.4l-10.9-14.2v14.6h-2.2v-18.8h1.8"/>
  <path class="st2" d="M197.2,206.3h7l-3-7.7c-.2-.5-.4-1.1-.6-1.8,0,.4-.2.7-.3,1,0,.3-.2.6-.3.8l-3,7.6h.2ZM209.5,213.3h-2c-.2,0-.4,0-.5-.2-.1-.1-.2-.3-.3-.4l-1.8-4.5h-8.4l-1.8,4.5c0,.2-.2.3-.3.4-.1.1-.3.2-.6.2h-2l7.5-18.8h2.6l7.5,18.8h.1Z"/>
  <polygon class="st2" points="215.8 211.2 223.9 211.2 223.9 213.3 213.2 213.3 213.2 194.5 215.8 194.5 215.8 211.2"/>
  <path class="st0" d="M12.8,236.2c0-.9-.1-1.8-.4-2.6-.2-.8-.6-1.4-1.1-1.9s-1-.9-1.7-1.2-1.4-.4-2.3-.4h-3v12.3h3c.8,0,1.6-.1,2.3-.4.7-.3,1.2-.7,1.7-1.2s.8-1.2,1.1-1.9c.2-.8.4-1.6.4-2.6M17.4,236.2c0,1.4-.2,2.7-.7,3.8-.5,1.2-1.2,2.2-2,3-.9.9-1.9,1.5-3.1,2-1.2.5-2.6.7-4.1.7H0v-19.1h7.4c1.5,0,2.8.2,4.1.7,1.2.5,2.3,1.1,3.1,2,.9.8,1.5,1.9,2,3,.5,1.2.7,2.4.7,3.8"/>
  <polygon class="st0" points="33.1 226.6 33.1 230 25.3 230 25.3 234.5 31.3 234.5 31.3 237.8 25.3 237.8 25.3 242.3 33.1 242.3 33.1 245.7 20.8 245.7 20.8 226.6 33.1 226.6"/>
  <path class="st0" d="M51.5,238.8c0,1.1,0,2-.4,2.9-.3.9-.7,1.6-1.2,2.3-.5.6-1.2,1.1-2,1.5-.8.3-1.8.5-2.9.5h-1.5c-.5,0-1-.1-1.5-.3l.2-2.6c0-.2,0-.4.3-.6.2-.1.4-.2.7-.2h1.3c.3,0,.8,0,1.1-.2.3-.1.6-.3.8-.6s.4-.6.5-1.1c0-.4.2-1,.2-1.7v-12.3h4.4v12.4Z"/>
  <path class="st0" d="M70.3,236.2c0-.9,0-1.8-.4-2.6-.2-.8-.6-1.4-1.1-1.9s-1-.9-1.7-1.2-1.4-.4-2.3-.4-1.6.1-2.3.4c-.7.3-1.2.7-1.7,1.2s-.8,1.2-1.1,1.9c-.2.8-.4,1.6-.4,2.6s0,1.8.4,2.6c.2.8.6,1.4,1.1,1.9s1,.9,1.7,1.2,1.4.4,2.3.4,1.6-.1,2.3-.4c.7-.3,1.2-.7,1.7-1.2s.8-1.2,1.1-1.9c.2-.8.4-1.6.4-2.6M74.8,236.2c0,1.4-.2,2.7-.7,3.9s-1.2,2.2-2,3.1c-.9.9-1.9,1.6-3.1,2.1s-2.6.7-4.1.7-2.8-.2-4.1-.7c-1.2-.5-2.3-1.2-3.1-2.1-.9-.9-1.5-1.9-2-3.1-.5-1.2-.7-2.5-.7-3.9s.2-2.7.7-3.9,1.2-2.2,2-3.1c.9-.9,1.9-1.6,3.1-2.1,1.2-.5,2.6-.7,4.1-.7s2.8.3,4.1.8c1.2.5,2.3,1.2,3.1,2.1.9.9,1.5,1.9,2,3.1.5,1.2.7,2.5.7,3.8"/>
  <path class="st0" d="M82.7,235.6h1.8c.6,0,1.1,0,1.5-.2s.8-.4,1-.6c.3-.3.5-.6.6-1s.2-.8.2-1.2c0-.8-.3-1.5-.8-2s-1.4-.7-2.5-.7h-1.8s0,5.7,0,5.7ZM82.7,238.7v7.1h-4.4v-19.1h6.2c1.4,0,2.6.1,3.5.4,1,.3,1.8.7,2.4,1.2s1.1,1.1,1.3,1.8c.3.7.4,1.4.4,2.3s0,1.2-.2,1.8-.4,1.1-.7,1.5c-.3.5-.7.9-1.2,1.3-.5.4-1,.7-1.6.9.3.1.6.3.8.6.3.2.5.5.7.8l4.1,6.7h-4c-.7,0-1.3-.3-1.6-.8l-3.2-5.6c0-.2-.3-.4-.5-.5s-.5-.2-.8-.2h-1.1v-.2Z"/>
  <path class="st0" d="M99.8,226.6h.4c0,0,.2.1.3.2,0,0,.2.2.3.4l9.1,11.5v-12.2h3.9v19.1h-2.3c-.3,0-.6,0-.9-.2-.2-.1-.5-.3-.7-.6l-9-11.4v12.2h-3.9v-19.1h2.8"/>
  <path class="st0" d="M123.7,238.4h5.2l-1.8-5.2c0-.3-.2-.7-.4-1.2-.2-.5-.3-.9-.5-1.5,0,.5-.3,1-.4,1.5s-.3.9-.4,1.2l-1.8,5.2h.1ZM136,245.7h-3.4c-.4,0-.7,0-1-.3s-.4-.4-.5-.7l-1.1-3.3h-7.3l-1.1,3.3c0,.2-.3.5-.5.7-.3.2-.6.3-.9.3h-3.5l7.4-19.1h4.5l7.4,19.1Z"/>
  <polygon class="st0" points="143.3 242.2 150.4 242.2 150.4 245.7 138.8 245.7 138.8 226.6 143.3 226.6 143.3 242.2"/>
  <rect class="st0" x="154.2" y="226.6" width="4.5" height="19.1"/>
  <path class="st0" d="M174.2,230.5c-.1.2-.3.4-.4.5-.1.1-.3.2-.6.2s-.4,0-.6-.2c-.2-.1-.5-.3-.8-.4-.3-.2-.6-.3-1-.4-.4-.1-.8-.2-1.3-.2-.8,0-1.5.2-1.9.5-.4.4-.6.8-.6,1.4s.1.7.4,1c.2.3.6.5,1,.7s.9.4,1.4.5c.5.2,1,.3,1.6.5.5.2,1.1.4,1.6.7s1,.6,1.4,1,.7.9,1,1.4c.2.6.4,1.2.4,2s-.2,1.7-.5,2.5-.7,1.4-1.3,2-1.3,1-2.2,1.4c-.9.3-1.8.5-2.9.5s-1.2,0-1.8-.2c-.6-.1-1.2-.3-1.8-.5s-1.1-.5-1.6-.8-.9-.6-1.3-1l1.3-2.1c0-.2.2-.3.4-.4.2,0,.4-.1.6-.1s.5,0,.8.2.6.4.9.6c.3.2.7.4,1.2.6.4.2,1,.2,1.5.2s1.4-.2,1.9-.5c.4-.4.7-.9.7-1.7s-.1-.8-.4-1.1c-.2-.3-.6-.5-1-.7s-.9-.3-1.4-.5c-.5-.1-1-.3-1.6-.5-.5-.2-1.1-.4-1.6-.6-.5-.2-1-.6-1.4-1s-.7-.9-1-1.5c-.2-.6-.4-1.4-.4-2.3s.1-1.4.4-2.1c.3-.7.7-1.3,1.3-1.8s1.2-1,2.1-1.3c.8-.3,1.7-.5,2.8-.5s1.2,0,1.7.1c.6,0,1.1.2,1.6.4s1,.4,1.4.6c.4.2.8.5,1.2.8l-1.1,2.1h0Z"/>
  <path class="st0" d="M189.3,238c.2.4.3.7.5,1.1.1-.4.3-.8.5-1.1.2-.4.3-.7.5-1.1l4.9-9.7c0-.2.2-.3.3-.4,0,0,.2-.2.3-.2h4.3v19.1h-3.9v-12.7l-5.1,9.8c-.2.3-.4.5-.6.7-.3.2-.6.2-.9.2h-.6c-.3,0-.6,0-.9-.2-.3-.2-.5-.4-.6-.7l-5.1-9.8v12.7h-3.9v-19.1h4.3c.1,0,.2.1.3.2,0,0,.2.2.3.4l4.9,9.7c.2.3.3.7.5,1"/>
  <path class="st0" d="M219.3,236.2c0-.9-.1-1.8-.4-2.6-.2-.8-.6-1.4-1.1-1.9s-1-.9-1.7-1.2-1.4-.4-2.3-.4-1.6.1-2.3.4c-.7.3-1.2.7-1.7,1.2s-.8,1.2-1.1,1.9c-.2.8-.4,1.6-.4,2.6s.1,1.8.4,2.6c.2.8.6,1.4,1.1,1.9s1,.9,1.7,1.2,1.4.4,2.3.4,1.6-.1,2.3-.4c.7-.3,1.2-.7,1.7-1.2s.8-1.2,1.1-1.9c.2-.8.4-1.6.4-2.6M223.9,236.2c0,1.4-.2,2.7-.7,3.9s-1.2,2.2-2,3.1c-.9.9-1.9,1.6-3.1,2.1-1.2.5-2.6.7-4.1.7s-2.8-.2-4.1-.7c-1.2-.5-2.3-1.2-3.1-2.1-.9-.9-1.5-1.9-2-3.1-.5-1.2-.7-2.5-.7-3.9s.2-2.7.7-3.9,1.2-2.2,2-3.1c.9-.9,1.9-1.6,3.1-2.1,1.2-.5,2.6-.7,4.1-.7s2.8.3,4.1.8c1.2.5,2.3,1.2,3.1,2.1.9.9,1.5,1.9,2,3.1.5,1.2.7,2.5.7,3.8"/>
  <rect class="st0" x="10.2" y="259" width="4.5" height="19.1"/>
  <path class="st0" d="M22.4,259h.4c.1,0,.2.1.3.2,0,0,.2.2.3.4l9.1,11.5v-12.2h3.9v19.1h-2.3c-.3,0-.6,0-.9-.2-.2-.1-.5-.3-.7-.6l-9-11.4v12.2h-3.9v-19.1h2.8"/>
  <path class="st0" d="M39.1,259h3.6c.4,0,.7,0,.9.3.2.2.4.4.5.7l3.7,10.2c.2.4.3.9.5,1.5.2.5.3,1.1.5,1.7,0-.6.3-1.1.4-1.7.2-.5.3-1,.5-1.5l3.7-10.2c0-.2.3-.5.5-.7.3-.2.6-.3.9-.3h3.6l-7.7,19.1h-4l-7.7-19.1h0Z"/>
  <polygon class="st0" points="73.7 259 73.7 262.4 65.8 262.4 65.8 266.9 71.8 266.9 71.8 270.2 65.8 270.2 65.8 274.7 73.7 274.7 73.7 278.2 61.4 278.2 61.4 259 73.7 259"/>
  <path class="st0" d="M88.2,262.9c0,.2-.3.4-.4.5s-.3.2-.6.2-.4,0-.6-.2c-.2-.1-.5-.3-.8-.4-.3-.2-.6-.3-1-.4s-.8-.2-1.3-.2c-.8,0-1.5.2-1.9.5-.4.4-.6.8-.6,1.4s0,.7.4,1c.2.3.6.5,1,.7s.9.4,1.4.5c.5.2,1,.3,1.6.5.5.2,1.1.4,1.6.7.5.3,1,.6,1.4,1s.7.9,1,1.4c.2.6.4,1.2.4,2s-.2,1.7-.5,2.5-.8,1.4-1.3,2c-.6.6-1.3,1-2.2,1.4-.9.3-1.8.5-2.9.5s-1.2,0-1.8-.2c-.6-.1-1.2-.3-1.8-.5-.6-.2-1.1-.5-1.6-.8s-1-.6-1.3-1l1.3-2.1c0-.2.2-.3.4-.4.2,0,.4-.1.6-.1s.5,0,.8.2.6.4.9.6.7.4,1.2.6c.4.2,1,.2,1.5.2s1.4-.2,1.9-.5c.4-.4.7-.9.7-1.7s0-.8-.4-1.1c-.2-.3-.6-.5-1-.7s-.9-.3-1.4-.5c-.5-.1-1-.3-1.6-.5-.5-.2-1.1-.4-1.6-.6s-1-.6-1.4-1-.7-.9-1-1.5c-.2-.6-.4-1.4-.4-2.3s0-1.4.4-2.1.7-1.3,1.3-1.8c.6-.5,1.2-1,2.1-1.3.8-.3,1.7-.5,2.8-.5s1.2,0,1.7.1c.6,0,1.1.2,1.6.4.5.2,1,.4,1.4.6s.8.5,1.2.8l-1.1,2.1h0Z"/>
  <polygon class="st0" points="106.9 259 106.9 262.5 101.6 262.5 101.6 278.2 97.1 278.2 97.1 262.5 91.7 262.5 91.7 259 106.9 259"/>
  <rect class="st0" x="110.5" y="259" width="4.5" height="19.1"/>
  <path class="st0" d="M128.8,274.9c.6,0,1.2,0,1.6-.2.5-.1.9-.2,1.3-.4v-2.9h-1.9c-.3,0-.5,0-.7-.2-.2-.1-.2-.3-.2-.6v-2.4h6.8v8.1c-.5.4-1,.7-1.5.9-.5.3-1.1.5-1.7.6-.6.2-1.2.3-1.9.4-.7,0-1.4.1-2.2.1-1.4,0-2.7-.2-3.9-.7-1.2-.5-2.2-1.2-3.1-2-.9-.9-1.6-1.9-2-3.1-.5-1.2-.7-2.5-.7-3.9s.2-2.7.7-3.9c.5-1.2,1.1-2.2,2-3.1s1.9-1.5,3.2-2c1.2-.5,2.6-.7,4.2-.7s1.5,0,2.2.2c.7.1,1.3.3,1.9.5.6.2,1.1.5,1.6.8s.9.7,1.3,1l-1.3,2c-.1.2-.3.3-.4.4-.2.1-.4.2-.6.2s-.5,0-.8-.3c-.4-.2-.7-.4-1-.5-.3-.2-.6-.3-1-.4-.3,0-.7-.2-1-.2h-1.2c-.8,0-1.6.1-2.2.4-.7.3-1.2.7-1.7,1.2s-.8,1.2-1.1,1.9c-.3.7-.4,1.6-.4,2.5s0,1.9.4,2.7c.3.8.7,1.5,1.2,2s1.1,1,1.8,1.2c.7.3,1.4.4,2.2.4"/>
  <path class="st0" d="M145.3,270.8h5.2l-1.8-5.2c-.1-.3-.2-.7-.4-1.2s-.3-.9-.5-1.5c-.1.5-.3,1-.4,1.5-.1.5-.3.9-.4,1.2l-1.8,5.2h0ZM157.6,278.2h-3.4c-.4,0-.7,0-.9-.3-.2-.2-.4-.4-.5-.7l-1.1-3.3h-7.3l-1.1,3.3c0,.2-.3.5-.5.7-.3.2-.6.3-.9.3h-3.5l7.4-19.1h4.5l7.4,19.1h0Z"/>
  <polygon class="st0" points="172.3 259 172.3 262.5 166.9 262.5 166.9 278.2 162.4 278.2 162.4 262.5 157.1 262.5 157.1 259 172.3 259"/>
  <rect class="st0" x="175.8" y="259" width="4.5" height="19.1"/>
  <path class="st0" d="M183.6,259h3.6c.4,0,.7,0,.9.3.2.2.4.4.5.7l3.7,10.2c.2.4.3.9.5,1.5.2.5.3,1.1.5,1.7.1-.6.3-1.1.4-1.7.2-.5.3-1,.5-1.5l3.7-10.2c0-.2.3-.5.5-.7.3-.2.6-.3.9-.3h3.6l-7.7,19.1h-4l-7.7-19.1h.1Z"/>
  <path class="st0" d="M219.3,268.6c0-.9-.1-1.8-.4-2.6-.2-.8-.6-1.4-1.1-1.9s-1-.9-1.7-1.2c-.7-.3-1.4-.4-2.3-.4s-1.6.1-2.3.4-1.2.7-1.7,1.2-.8,1.2-1.1,1.9c-.2.8-.4,1.6-.4,2.6s.1,1.8.4,2.6c.2.8.6,1.4,1.1,1.9s1,.9,1.7,1.2c.7.3,1.4.4,2.3.4s1.6-.1,2.3-.4,1.2-.7,1.7-1.2.8-1.2,1.1-1.9c.2-.8.4-1.6.4-2.6M223.9,268.6c0,1.4-.2,2.7-.7,3.9-.5,1.2-1.2,2.2-2,3.1-.9.9-1.9,1.6-3.1,2.1-1.2.5-2.6.7-4.1.7s-2.8-.2-4.1-.7c-1.2-.5-2.3-1.2-3.1-2.1-.9-.9-1.5-1.9-2-3.1s-.7-2.5-.7-3.9.2-2.7.7-3.9c.5-1.2,1.2-2.2,2-3.1.9-.9,1.9-1.6,3.1-2.1,1.2-.5,2.6-.7,4.1-.7s2.8.3,4.1.8c1.2.5,2.3,1.2,3.1,2.1.9.9,1.5,1.9,2,3.1s.7,2.5.7,3.8"/>
  <path class="st1" d="M303.4,0h-17.4v46.2h65.2v114c0,11.1-1.8,21.5-5,30.9,8.5-2.4,17.2-6,25.7-11.5,20.1-13.1,28-38.4,28.1-65.6V0h-96.6Z"/>
  <path class="st1" d="M302.3,160.2h-16.4v35.2h0c1.3-.9,2.5-1.8,3.7-2.9,8.4-7.3,12.5-17.9,12.7-32.3"/>
  <path class="st2" d="M291.7,195.5h-5.7c-14.6,10.4-34.1,12.1-48.9,11.5v37.1h5.7c21.9,0,55.7,3,80.2-18.3,10.7-9.3,18.5-21,23.1-34.7-19.9,5.6-39.2,4.4-54.5,4.4"/>
  <rect class="st0" x="286" y="46.2" width="65.2" height="67.8"/>
  <path class="st0" d="M351.2,114c-.1,14.4-4.2,25-12.7,32.3-9.5,8.3-24.4,13.9-36.2,13.9-.1,14.4-4.2,25-12.7,32.3-1.2,1-2.4,2-3.7,2.9h5.7c15.3,0,34.6,1.2,54.5-4.4,3.2-9.4,4.9-19.8,5-30.9v-46.2h.1Z"/>
  <path class="st2" d="M286,114V46.2h-27.3c0,11.9-9.6,21.5-21.5,21.5v92.5h65.2c11.8,0,26.7-5.6,36.2-13.9,8.4-7.3,12.5-17.9,12.7-32.3h-65.3Z"/>
  <path class="st1" d="M254.5,46.2h4.1c0-11.9-9.6-21.5-21.5-21.5s-21.5,9.6-21.5,21.5,9.6,21.5,21.5,21.5v-21.5s17.4,0,17.4,0Z"/>
  <path class="st0" d="M258.6,46.2h-21.5v21.5c11.9,0,21.5-9.6,21.5-21.5"/>
  <g>
    <path class="st3" d="M35.2,134c6.4-6.5,12.5-12.7,18.4-18.8,5.9-6,11.3-11.9,16-17.6,4.7-5.7,8.4-11.2,11.1-16.5,2.7-5.3,4.1-10.5,4.1-15.4s-.5-5.4-1.4-7.5c-.9-2.2-2.2-3.9-3.8-5.4-1.6-1.4-3.5-2.5-5.6-3.2-2.1-.7-4.4-1.1-6.8-1.1s-5.5.5-7.7,1.4c-2.2.9-3.9,2.1-5.2,3.6-1.3,1.5-2.4,3.1-3.1,4.8-.7,1.7-1.1,3.4-1.1,5.2,0,3.4.5,6.4,1.6,9s2.5,4.9,4.4,6.8l-10.9,10c-2.7-1.5-4.9-3.8-6.8-6.8-1.8-3-3.3-6.2-4.2-9.6-1-3.4-1.5-6.4-1.5-8.9,0-5.6,1.5-10.9,4.4-15.8,2.9-4.9,7.2-8.9,12.8-12.1,5.6-3.1,12.4-4.7,20.4-4.7s12.5,1.5,17.4,4.5c5,3,8.8,7,11.6,12.1,2.8,5,4.2,10.5,4.2,16.3s-.9,9.7-2.7,14.4c-1.8,4.7-4.2,9.3-7.3,13.8-3.1,4.6-6.5,9-10.2,13.5-3.7,4.4-7.5,8.9-11.3,13.4l-8-2.5h42v17.2H35.2Z"/>
    <path class="st3" d="M161.1,134.3c-6.1,0-11.8-1.1-17-3.3-5.2-2.2-9.7-5.5-13.5-9.9-3.8-4.4-6.8-9.8-9-16.2-2.2-6.4-3.2-13.8-3.2-22.1s1-16.8,3.1-23.3c2-6.5,5-11.9,8.8-16.1,3.8-4.2,8.3-7.2,13.5-9.1,5.2-1.9,11-2.8,17.4-2.8s11.7,1.1,16.8,3.3c5.2,2.2,9.7,5.5,13.5,9.8,3.8,4.4,6.8,9.7,9,16.1,2.2,6.4,3.2,13.8,3.2,22.1s-1.1,16-3.2,22.4c-2.2,6.5-5.1,11.8-9,16.1-3.8,4.3-8.4,7.5-13.5,9.7-5.2,2.2-10.8,3.2-16.8,3.2ZM161,117.3c5.6,0,10.2-1.5,13.8-4.5,3.5-3,6.1-7.1,7.8-12.4,1.7-5.3,2.5-11.3,2.5-18.1s-.8-12.4-2.5-17.4-4.3-9.1-7.8-12c-3.5-2.9-8.1-4.3-13.8-4.2-5.5-.1-10.1,1.3-13.7,4.3-3.6,3-6.2,7-7.8,12.1-1.6,5.1-2.5,11-2.5,17.7s.8,12.5,2.5,17.7c1.6,5.2,4.3,9.3,7.8,12.3,3.6,3,8.1,4.5,13.7,4.5Z"/>
  </g>
</svg>